<?xml version="1.0" standalone="no"?>
<!DOCTYPE svg PUBLIC "-//W3C//DTD SVG 20010904//EN"
 "http://www.w3.org/TR/2001/REC-SVG-20010904/DTD/svg10.dtd">
<svg version="1.0" xmlns="http://www.w3.org/2000/svg"
 width="1233.000000pt" height="1233.000000pt" viewBox="0 0 1233.000000 1233.000000"
 preserveAspectRatio="xMidYMid meet">
<metadata>
Created by potrace 1.14, written by Peter Selinger 2001-2017
</metadata>
<g transform="translate(0.000000,1233.000000) scale(0.100000,-0.100000)"
fill="#000000" stroke="none">
<path d="M263 11928 c2 -7 324 -600 714 -1318 l710 -1305 796 -3 795 -2 -156
288 c-87 159 -409 753 -717 1320 l-560 1031 -794 1 c-630 0 -792 -3 -788 -12z"/>
<path d="M5035 11778 c-3 -7 -351 -1021 -774 -2253 -423 -1232 -773 -2248
-776 -2257 -7 -17 34 -18 781 -18 l789 0 165 471 c91 259 175 486 187 504 46
68 15 65 793 65 776 0 745 2 793 -64 l22 -31 0 -915 0 -915 -22 -31 c-49 -69
80 -64 -1687 -64 l-1596 0 0 -395 0 -395 1608 -2 1607 -3 31 -22 c69 -50 64
128 64 -2128 0 -2256 5 -2078 -64 -2128 l-31 -22 -772 -5 -771 -5 181 -392
182 -393 1402 0 1403 0 0 2491 c0 2760 -6 2532 64 2582 l31 22 1628 3 1627 2
0 395 0 395 -1616 0 c-1789 0 -1658 -5 -1707 64 l-22 31 0 915 0 915 22 31
c48 67 14 64 818 64 797 0 772 2 813 -59 10 -14 85 -217 167 -451 81 -234 156
-449 167 -477 l19 -53 765 0 c420 0 764 3 764 7 0 4 -350 1025 -777 2270
l-778 2263 -2748 0 c-2189 0 -2749 -3 -2752 -12z m4191 -794 c19 -9 42 -28 52
-43 10 -14 148 -403 306 -864 313 -910 307 -886 258 -955 -48 -67 115 -62
-2032 -62 -1771 0 -1945 1 -1976 16 -49 23 -77 68 -82 128 -3 46 24 132 278
871 155 451 292 836 305 856 48 74 -68 69 1473 69 1257 0 1387 -1 1418 -16z"/>
<path d="M386 8547 c2 -7 274 -650 603 -1428 l598 -1414 803 -3 c761 -2 802
-1 796 15 -4 10 -276 654 -604 1430 l-597 1413 -802 0 c-657 0 -801 -2 -797
-13z"/>
<path d="M1545 4878 c-3 -7 -298 -1016 -656 -2241 -357 -1226 -653 -2235 -656
-2243 -4 -12 106 -14 779 -14 l784 0 653 2238 c360 1230 656 2245 659 2255 4
16 -38 17 -777 17 -616 0 -783 -3 -786 -12z"/>
<path d="M4721 4538 c-94 -209 -1754 -3854 -1758 -3860 -2 -5 341 -8 764 -8
l768 0 890 1957 c490 1075 892 1960 893 1964 2 5 -332 9 -763 9 l-766 0 -28
-62z"/>
<path d="M9386 4293 c58 -170 358 -1053 667 -1963 l563 -1655 753 -3 c714 -2
753 -1 749 15 -5 19 -1313 3868 -1324 3897 -6 15 -75 16 -759 16 l-753 0 104
-307z"/>
</g>
</svg>
